<svg width="1330" height="383" viewBox="0 0 1330 383" fill="none" xmlns="http://www.w3.org/2000/svg">
<path opacity="0.4" d="M1049 80L1018 62.25V26.75L1049 9L1080 26.75V62.25" stroke="#9FB1BD"/>
<path opacity="0.4" d="M1111 186L1080 168.25V132.75L1111 115L1142 132.75V168.25" stroke="#9FB1BD"/>
<path d="M1110.25 80.433L1110.5 80.5774L1110.75 80.433L1141.49 62.683L1141.74 62.5387V62.25V26.75V26.4613L1141.49 26.317L1110.75 8.56699L1110.5 8.42265L1110.25 8.56699L1079.51 26.317L1079.26 26.4613V26.75V62.25V62.5387L1079.51 62.683L1110.25 80.433Z" stroke="#10323C"/>
<path opacity="0.4" d="M1172 151L1141 133.25V97.75L1172 80L1203 97.75V133.25" stroke="#9FB1BD"/>
<path opacity="0.4" d="M1111 257L1080 239.25V203.75L1111 186L1142 203.75V239.25" stroke="#9FB1BD"/>
<path d="M1110.51 80.25L1141.26 98L1172 80.25V44.75L1141.26 27" stroke="#10323C"/>
<path d="M1018.51 98.25L1049.26 116L1080 98.25V62.75L1049.26 45" stroke="#10323C"/>
<path opacity="0.4" d="M1110 45L1079 27.25V-8.25L1110 -26L1141 -8.25V27.25" stroke="#9FB1BD"/>
<path d="M1172.25 186.433L1172.5 186.577L1172.75 186.433L1203.49 168.683L1203.74 168.539V168.25V132.75V132.461L1203.49 132.317L1172.75 114.567L1172.5 114.423L1172.25 114.567L1141.51 132.317L1141.26 132.461V132.75V168.25V168.539L1141.51 168.683L1172.25 186.433Z" stroke="#10323C"/>
<path d="M1172.25 257.433L1172.5 257.577L1172.75 257.433L1203.49 239.683L1203.74 239.539V239.25V203.75V203.461L1203.49 203.317L1172.75 185.567L1172.5 185.423L1172.25 185.567L1141.51 203.317L1141.26 203.461V203.75V239.25V239.539L1141.51 239.683L1172.25 257.433Z" stroke="#10323C"/>
<path d="M1049.51 186.25L1080.26 204L1111 186.25V150.75L1080.26 133" stroke="#10323C"/>
<path d="M1110.51 151.25L1141.26 169L1172 151.25V115.75L1141.26 98" stroke="#10323C"/>
<path d="M1172.51 186.25L1203.26 204L1234 186.25V150.75L1203.26 133" stroke="#10323C"/>
<path d="M1049.51 257.25L1080.26 275L1111 257.25V221.75L1080.26 204" stroke="#10323C"/>
<path d="M1203.51 133.25L1234.26 151L1265 133.25V97.75L1234.26 80" stroke="#10323C"/>
<path d="M1080.51 204.25L1111.26 222L1142 204.25V168.75L1111.26 151" stroke="#10323C"/>
<path opacity="0.4" d="M1234 328L1203 310.25V274.75L1234 257L1265 274.75V310.25" stroke="#9FB1BD"/>
<path d="M1080.25 133.433L1080.5 133.577L1080.75 133.433L1111.49 115.683L1111.74 115.539V115.25V79.75V79.4613L1111.49 79.317L1080.75 61.567L1080.5 61.4227L1080.25 61.567L1049.51 79.317L1049.26 79.4613V79.75V115.25V115.539L1049.51 115.683L1080.25 133.433Z" stroke="#10323C"/>
<path d="M987.512 80.25L1018.26 98L1049 80.25V44.75L1018.26 27" stroke="#10323C"/>
<path d="M1172.51 257.25L1203.26 275L1234 257.25V221.75L1203.26 204" stroke="#10323C"/>
<path d="M1048.51 45.25L1079.26 63L1110 45.25V9.75L1079.26 -8" stroke="#10323C"/>
<path d="M1049.51 186.25L1080.26 204L1111 186.25V150.75L1080.26 133" stroke="#10323C"/>
<path d="M1080.51 275.25L1111.26 293L1142 275.25V239.75L1111.26 222" stroke="#10323C"/>
<path d="M989.512 292.25L1020.26 310L1051 292.25V256.75L1020.26 239" stroke="#10323C"/>
<path d="M987.512 151.25L1018.26 169L1049 151.25V115.75L1018.26 98" stroke="#10323C"/>
<path d="M1141.51 27.25L1172.26 45L1203 27.25V-8.25L1172.26 -26" stroke="#10323C"/>
<path opacity="0.4" d="M404 311L373 293.25V257.75L404 240L435 257.75V293.25" stroke="#9FB1BD"/>
<path opacity="0.4" d="M157 98L126 80.25V44.75L157 27L188 44.75V80.25" stroke="#9FB1BD"/>
<path opacity="0.4" d="M589 98L558 80.25V44.75L589 27L620 44.75V80.25" stroke="#9FB1BD"/>
<path opacity="0.4" d="M1019 133L988 115.25V79.75L1019 62L1050 79.75V115.25" stroke="#9FB1BD"/>
<path opacity="0.4" d="M650 63L619 45.25V9.75L650 -8L681 9.75V45.25" stroke="#9FB1BD"/>
<path opacity="0.4" d="M589 169L558 151.25V115.75L589 98L620 115.75V151.25" stroke="#9FB1BD"/>
<path d="M1142.25 310.433L1142.5 310.577L1142.75 310.433L1173.49 292.683L1173.74 292.539V292.25V256.75V256.461L1173.49 256.317L1142.75 238.567L1142.5 238.423L1142.25 238.567L1111.51 256.317L1111.26 256.461V256.75V292.25V292.539L1111.51 292.683L1142.25 310.433Z" stroke="#10323C"/>
<path opacity="0.4" d="M651 275L620 257.25V221.75L651 204L682 221.75V257.25" stroke="#9FB1BD"/>
<path d="M650.25 98.433L650.5 98.5774L650.75 98.433L681.494 80.683L681.744 80.5387V80.25V44.75V44.4613L681.494 44.317L650.75 26.567L650.5 26.4227L650.25 26.567L619.506 44.317L619.256 44.4613V44.75V80.25V80.5387L619.506 80.683L650.25 98.433Z" stroke="#10323C"/>
<path d="M650.25 169.433L650.5 169.577L650.75 169.433L681.494 151.683L681.744 151.539V151.25V115.75V115.461L681.494 115.317L650.75 97.567L650.5 97.4227L650.25 97.567L619.506 115.317L619.256 115.461V115.75V151.25V151.539L619.506 151.683L650.25 169.433Z" stroke="#10323C"/>
<path d="M527.512 98.25L558.256 116L589 98.25V62.75L558.256 45" stroke="#10323C"/>
<path d="M588.512 63.25L619.256 81L650 63.25V27.75L619.256 10" stroke="#10323C"/>
<path d="M650.512 98.25L681.256 116L712 98.25V62.75L681.256 45" stroke="#10323C"/>
<path d="M527.512 169.25L558.256 187L589 169.25V133.75L558.256 116" stroke="#10323C"/>
<path d="M681.512 45.25L712.256 63L743 45.25V9.75L712.256 -8" stroke="#10323C"/>
<path d="M558.512 116.25L589.256 134L620 116.25V80.75L589.256 63" stroke="#10323C"/>
<path opacity="0.4" d="M712 240L681 222.25V186.75L712 169L743 186.75V222.25" stroke="#9FB1BD"/>
<path d="M558.25 45.433L558.5 45.5774L558.75 45.433L589.494 27.683L589.744 27.5387V27.25V-8.25V-8.53867L589.494 -8.68301L558.75 -26.433L558.5 -26.5773L558.25 -26.433L527.506 -8.68301L527.256 -8.53867V-8.25V27.25V27.5387L527.506 27.683L558.25 45.433Z" stroke="#10323C"/>
<path d="M650.512 169.25L681.256 187L712 169.25V133.75L681.256 116" stroke="#10323C"/>
<path d="M709.512 -8.75L740.256 9L771 -8.75V-44.25L740.256 -62" stroke="#10323C"/>
<path d="M558.512 187.25L589.256 205L620 187.25V151.75L589.256 134" stroke="#10323C"/>
<path d="M712.25 275.433L712.5 275.577L712.75 275.433L743.494 257.683L743.744 257.539V257.25V221.75V221.461L743.494 221.317L712.75 203.567L712.5 203.423L712.25 203.567L681.506 221.317L681.256 221.461V221.75V257.25V257.539L681.506 257.683L712.25 275.433Z" stroke="#10323C"/>
<path d="M589.512 275.25L620.256 293L651 275.25V239.75L620.256 222" stroke="#10323C"/>
<path d="M467.512 204.25L498.256 222L529 204.25V168.75L498.256 151" stroke="#10323C"/>
<path d="M650.512 240.25L681.256 258L712 240.25V204.75L681.256 187" stroke="#10323C"/>
<path d="M465.512 63.25L496.256 81L527 63.25V27.75L496.256 10" stroke="#10323C"/>
<path opacity="0.4" d="M895 98L864 80.25V44.75L895 27L926 44.75V80.25" stroke="#9FB1BD"/>
<path d="M712.512 275.25L743.256 293L774 275.25V239.75L743.256 222" stroke="#10323C"/>
<path opacity="0.4" d="M219 204L188 186.25V150.75L219 133L250 150.75V186.25" stroke="#9FB1BD"/>
<path d="M620.512 293.25L651.256 311L682 293.25V257.75L651.256 240" stroke="#10323C"/>
<path opacity="0.4" d="M835 239L804 221.25V185.75L835 168L866 185.75V221.25" stroke="#9FB1BD"/>
<path d="M620.25 222.433L620.5 222.577L620.75 222.433L651.494 204.683L651.744 204.539V204.25V168.75V168.461L651.494 168.317L620.75 150.567L620.5 150.423L620.25 150.567L589.506 168.317L589.256 168.461V168.75V204.25V204.539L589.506 204.683L620.25 222.433Z" stroke="#10323C"/>
<path opacity="0.4" d="M896 204L865 186.25V150.75L896 133L927 150.75V186.25" stroke="#9FB1BD"/>
<path d="M896.25 239.433L896.5 239.577L896.75 239.433L927.494 221.683L927.744 221.539V221.25V185.75V185.461L927.494 185.317L896.75 167.567L896.5 167.423L896.25 167.567L865.506 185.317L865.256 185.461V185.75V221.25V221.539L865.506 221.683L896.25 239.433Z" stroke="#10323C"/>
<path opacity="0.4" d="M958 310L927 292.25V256.75L958 239L989 256.75V292.25" stroke="#9FB1BD"/>
<path d="M773.512 239.25L804.256 257L835 239.25V203.75L804.256 186" stroke="#10323C"/>
<path d="M834.512 204.25L865.256 222L896 204.25V168.75L865.256 151" stroke="#10323C"/>
<path d="M896.512 239.25L927.256 257L958 239.25V203.75L927.256 186" stroke="#10323C"/>
<path d="M773.512 310.25L804.256 328L835 310.25V274.75L804.256 257" stroke="#10323C"/>
<path d="M927.512 186.25L958.256 204L989 186.25V150.75L958.256 133" stroke="#10323C"/>
<path d="M804.512 257.25L835.256 275L866 257.25V221.75L835.256 204" stroke="#10323C"/>
<path d="M957.512 133.25L988.256 151L1019 133.25V97.75L988.256 80" stroke="#10323C"/>
<path opacity="0.4" d="M956 63L925 45.25V9.75L956 -8L987 9.75V45.25" stroke="#9FB1BD"/>
<path opacity="0.4" d="M895 169L864 151.25V115.75L895 98L926 115.75V151.25" stroke="#9FB1BD"/>
<path d="M894.512 -7.75L925.256 10L956 -7.75V-43.25L925.256 -61" stroke="#10323C"/>
<path d="M802.512 10.25L833.256 28L864 10.25V-25.25L833.256 -43" stroke="#10323C"/>
<path d="M956.25 98.433L956.5 98.5774L956.75 98.433L987.494 80.683L987.744 80.5387V80.25V44.75V44.4613L987.494 44.317L956.75 26.567L956.5 26.4227L956.25 26.567L925.506 44.317L925.256 44.4613V44.75V80.25V80.5387L925.506 80.683L956.25 98.433Z" stroke="#10323C"/>
<path d="M956.25 169.433L956.5 169.577L956.75 169.433L987.494 151.683L987.744 151.539V151.25V115.75V115.461L987.494 115.317L956.75 97.567L956.5 97.4227L956.25 97.567L925.506 115.317L925.256 115.461V115.75V151.25V151.539L925.506 151.683L956.25 169.433Z" stroke="#10323C"/>
<path d="M833.512 98.25L864.256 116L895 98.25V62.75L864.256 45" stroke="#10323C"/>
<path d="M894.512 63.25L925.256 81L956 63.25V27.75L925.256 10" stroke="#10323C"/>
<path d="M956.512 98.25L987.256 116L1018 98.25V62.75L987.256 45" stroke="#10323C"/>
<path d="M987.512 45.25L1018.26 63L1049 45.25V9.75L1018.26 -8" stroke="#10323C"/>
<path d="M864.512 116.25L895.256 134L926 116.25V80.75L895.256 63" stroke="#10323C"/>
<path opacity="0.4" d="M1018 240L987 222.25V186.75L1018 169L1049 186.75V222.25" stroke="#9FB1BD"/>
<path d="M864.25 45.433L864.5 45.5774L864.75 45.433L895.494 27.683L895.744 27.5387V27.25V-8.25V-8.53867L895.494 -8.68301L864.75 -26.433L864.5 -26.5773L864.25 -26.433L833.506 -8.68301L833.256 -8.53867V-8.25V27.25V27.5387L833.506 27.683L864.25 45.433Z" stroke="#10323C"/>
<path d="M771.512 -7.75L802.256 10L833 -7.75V-43.25L802.256 -61" stroke="#10323C"/>
<path d="M956.512 169.25L987.256 187L1018 169.25V133.75L987.256 116" stroke="#10323C"/>
<path d="M833.512 98.25L864.256 116L895 98.25V62.75L864.256 45" stroke="#10323C"/>
<path d="M864.512 187.25L895.256 205L926 187.25V151.75L895.256 134" stroke="#10323C"/>
<path d="M589.512 275.25L620.256 293L651 275.25V239.75L620.256 222" stroke="#10323C"/>
<path d="M773.512 204.25L804.256 222L835 204.25V168.75L804.256 151" stroke="#10323C"/>
<path d="M771.512 63.25L802.256 81L833 63.25V27.75L802.256 10" stroke="#10323C"/>
<path opacity="0.4" d="M803 45L772 27.25V-8.25L803 -26L834 -8.25V27.25" stroke="#9FB1BD"/>
<path opacity="0.4" d="M373 81L342 63.25V27.75L373 10L404 27.75V63.25" stroke="#9FB1BD"/>
<path d="M926.25 222.433L926.5 222.577L926.75 222.433L957.494 204.683L957.744 204.539V204.25V168.75V168.461L957.494 168.317L926.75 150.567L926.5 150.423L926.25 150.567L895.506 168.317L895.256 168.461V168.75V204.25V204.539L895.506 204.683L926.25 222.433Z" stroke="#10323C"/>
<path opacity="0.4" d="M435 187L404 169.25V133.75L435 116L466 133.75V169.25" stroke="#9FB1BD"/>
<path d="M434.25 81.433L434.5 81.5774L434.75 81.433L465.494 63.683L465.744 63.5387V63.25V27.75V27.4613L465.494 27.317L434.75 9.56699L434.5 9.42265L434.25 9.56699L403.506 27.317L403.256 27.4613V27.75V63.25V63.5387L403.506 63.683L434.25 81.433Z" stroke="#10323C"/>
<path d="M311.512 81.25L342.256 99L373 81.25V45.75L342.256 28" stroke="#10323C"/>
<path d="M896.512 310.25L927.256 328L958 310.25V274.75L927.256 257" stroke="#10323C"/>
<path opacity="0.4" d="M496 152L465 134.25V98.75L496 81L527 98.75V134.25" stroke="#9FB1BD"/>
<path d="M434.512 81.25L465.256 99L496 81.25V45.75L465.256 28" stroke="#10323C"/>
<path d="M342.512 99.25L373.256 117L404 99.25V63.75L373.256 46" stroke="#10323C"/>
<path d="M496.25 187.433L496.5 187.577L496.75 187.433L527.494 169.683L527.744 169.539V169.25V133.75V133.461L527.494 133.317L496.75 115.567L496.5 115.423L496.25 115.567L465.506 133.317L465.256 133.461V133.75V169.25V169.539L465.506 169.683L496.25 187.433Z" stroke="#10323C"/>
<path d="M373.512 187.25L404.256 205L435 187.25V151.75L404.256 134" stroke="#10323C"/>
<path d="M251.512 116.25L282.256 134L313 116.25V80.75L282.256 63" stroke="#10323C"/>
<path d="M434.512 152.25L465.256 170L496 152.25V116.75L465.256 99" stroke="#10323C"/>
<path d="M465.25 311.433L465.5 311.577L465.75 311.433L496.494 293.683L496.744 293.539V293.25V257.75V257.461L496.494 257.317L465.75 239.567L465.5 239.423L465.25 239.567L434.506 257.317L434.256 257.461V257.75V293.25V293.539L434.506 293.683L465.25 311.433Z" stroke="#10323C"/>
<path opacity="0.4" d="M527 382L496 364.25V328.75L527 311L558 328.75V364.25" stroke="#9FB1BD"/>
<path d="M465.512 311.25L496.256 329L527 311.25V275.75L496.256 258" stroke="#10323C"/>
<path d="M373.512 329.25L404.256 347L435 329.25V293.75L404.256 276" stroke="#10323C"/>
<path opacity="0.4" d="M465 276L434 258.25V222.75L465 205L496 222.75V258.25" stroke="#9FB1BD"/>
<path d="M496.512 187.25L527.256 205L558 187.25V151.75L527.256 134" stroke="#10323C"/>
<path d="M218.25 98.433L218.5 98.5774L218.75 98.433L249.494 80.683L249.744 80.5387V80.25V44.75V44.4613L249.494 44.317L218.75 26.567L218.5 26.4227L218.25 26.567L187.506 44.317L187.256 44.4613V44.75V80.25V80.5387L187.506 80.683L218.25 98.433Z" stroke="#10323C"/>
<path opacity="0.4" d="M280 169L249 151.25V115.75L280 98L311 115.75V151.25" stroke="#9FB1BD"/>
<path opacity="0.4" d="M219 275L188 257.25V221.75L219 204L250 221.75V257.25" stroke="#9FB1BD"/>
<path d="M218.512 98.25L249.256 116L280 98.25V62.75L249.256 45" stroke="#10323C"/>
<path d="M404.512 205.25L435.256 223L466 205.25V169.75L435.256 152" stroke="#10323C"/>
<path d="M558.512 364.25L589.256 382L620 364.25V328.75L589.256 311" stroke="#10323C"/>
<path d="M126.512 116.25L157.256 134L188 116.25V80.75L157.256 63" stroke="#10323C"/>
<path opacity="0.4" d="M218 63L187 45.25V9.75L218 -8L249 9.75V45.25" stroke="#9FB1BD"/>
<path d="M435.25 364.433L435.5 364.577L435.75 364.433L466.494 346.683L466.744 346.539V346.25V310.75V310.461L466.494 310.317L435.75 292.567L435.5 292.423L435.25 292.567L404.506 310.317L404.256 310.461V310.75V346.25V346.539L404.506 346.683L435.25 364.433Z" stroke="#10323C"/>
<path d="M280.25 204.433L280.5 204.577L280.75 204.433L311.494 186.683L311.744 186.539V186.25V150.75V150.461L311.494 150.317L280.75 132.567L280.5 132.423L280.25 132.567L249.506 150.317L249.256 150.461V150.75V186.25V186.539L249.506 186.683L280.25 204.433Z" stroke="#10323C"/>
<path d="M342.512 311.25L373.256 329L404 311.25V275.75L373.256 258" stroke="#10323C"/>
<path opacity="0.4" d="M619 151L588 133.25V97.75L619 80L650 97.75V133.25" stroke="#9FB1BD"/>
<path d="M280.25 275.433L280.5 275.577L280.75 275.433L311.494 257.683L311.744 257.539V257.25V221.75V221.461L311.494 221.317L280.75 203.567L280.5 203.423L280.25 203.567L249.506 221.317L249.256 221.461V221.75V257.25V257.539L249.506 257.683L280.25 275.433Z" stroke="#10323C"/>
<path d="M403.512 276.25L434.256 294L465 276.25V240.75L434.256 223" stroke="#10323C"/>
<path d="M157.512 204.25L188.256 222L219 204.25V168.75L188.256 151" stroke="#10323C"/>
<path d="M404.25 134.433L404.5 134.577L404.75 134.433L435.494 116.683L435.744 116.539V116.25V80.75V80.4613L435.494 80.317L404.75 62.567L404.5 62.4227L404.25 62.567L373.506 80.317L373.256 80.4613V80.75V116.25V116.539L373.506 116.683L404.25 134.433Z" stroke="#10323C"/>
<path d="M218.512 169.25L249.256 187L280 169.25V133.75L249.256 116" stroke="#10323C"/>
<path d="M496.512 258.25L527.256 276L558 258.25V222.75L527.256 205" stroke="#10323C"/>
<path opacity="0.4" d="M374 364L343 346.25V310.75L374 293L405 310.75V346.25" stroke="#9FB1BD"/>
<path d="M36.5122 276.25L67.2561 294L98 276.25V240.75L67.2561 223" stroke="#10323C"/>
<path d="M280.512 204.25L311.256 222L342 204.25V168.75L311.256 151" stroke="#10323C"/>
<path d="M157.512 275.25L188.256 293L219 275.25V239.75L188.256 222" stroke="#10323C"/>
<path opacity="0.4" d="M742 222L711 204.25V168.75L742 151L773 168.75V204.25" stroke="#9FB1BD"/>
<path d="M311.512 151.25L342.256 169L373 151.25V115.75L342.256 98" stroke="#10323C"/>
<path d="M557.512 151.25L588.256 169L619 151.25V115.75L588.256 98" stroke="#10323C"/>
<path d="M188.512 222.25L219.256 240L250 222.25V186.75L219.256 169" stroke="#10323C"/>
<path d="M618.512 116.25L649.256 134L680 116.25V80.75L649.256 63" stroke="#10323C"/>
<path opacity="0.4" d="M342 346L311 328.25V292.75L342 275L373 292.75V328.25" stroke="#9FB1BD"/>
<path d="M680.512 151.25L711.256 169L742 151.25V115.75L711.256 98" stroke="#10323C"/>
<path d="M188.25 151.433L188.5 151.577L188.75 151.433L219.494 133.683L219.744 133.539V133.25V97.75V97.4613L219.494 97.317L188.75 79.567L188.5 79.4227L188.25 79.567L157.506 97.317L157.256 97.4613V97.75V133.25V133.539L157.506 133.683L188.25 151.433Z" stroke="#10323C"/>
<path d="M557.512 222.25L588.256 240L619 222.25V186.75L588.256 169" stroke="#10323C"/>
<path d="M95.5122 98.25L126.256 116L157 98.25V62.75L126.256 45" stroke="#10323C"/>
<path d="M711.512 98.25L742.256 116L773 98.25V62.75L742.256 45" stroke="#10323C"/>
<path d="M280.512 275.25L311.256 293L342 275.25V239.75L311.256 222" stroke="#10323C"/>
<path d="M588.512 169.25L619.256 187L650 169.25V133.75L619.256 116" stroke="#10323C"/>
<path d="M156.512 63.25L187.256 81L218 63.25V27.75L187.256 10" stroke="#10323C"/>
<path d="M741.512 45.25L772.256 63L803 45.25V9.75L772.256 -8" stroke="#10323C"/>
<path d="M157.512 204.25L188.256 222L219 204.25V168.75L188.256 151" stroke="#10323C"/>
<path d="M373.512 187.25L404.256 205L435 187.25V151.75L404.256 134" stroke="#10323C"/>
<path d="M312.512 364.25L343.256 382L374 364.25V328.75L343.256 311" stroke="#10323C"/>
<path d="M188.512 293.25L219.256 311L250 293.25V257.75L219.256 240" stroke="#10323C"/>
<path opacity="0.4" d="M1173 363L1142 345.25V309.75L1173 292L1204 309.75V345.25" stroke="#9FB1BD"/>
<path d="M97.5122 310.25L128.256 328L159 310.25V274.75L128.256 257" stroke="#10323C"/>
<path d="M680.512 222.25L711.256 240L742 222.25V186.75L711.256 169" stroke="#10323C"/>
<path d="M95.5122 169.25L126.256 187L157 169.25V133.75L126.256 116" stroke="#10323C"/>
<path d="M249.512 45.25L280.256 63L311 45.25V9.75L280.256 -8" stroke="#10323C"/>
<path opacity="0.4" d="M127 151L96 133.25V97.75L127 80L158 97.75V133.25" stroke="#9FB1BD"/>
<path d="M250.25 328.433L250.5 328.577L250.75 328.433L281.494 310.683L281.744 310.539V310.25V274.75V274.461L281.494 274.317L250.75 256.567L250.5 256.423L250.25 256.567L219.506 274.317L219.256 274.461V274.75V310.25V310.539L219.506 310.683L250.25 328.433Z" stroke="#10323C"/>
<path d="M1234.25 363.433L1234.5 363.577L1234.75 363.433L1265.49 345.683L1265.74 345.539V345.25V309.75V309.461L1265.49 309.317L1234.75 291.567L1234.5 291.423L1234.25 291.567L1203.51 309.317L1203.26 309.461V309.75V345.25V345.539L1203.51 345.683L1234.25 363.433Z" stroke="#10323C"/>
<path d="M1111.51 363.25L1142.26 381L1173 363.25V327.75L1142.26 310" stroke="#10323C"/>
<path d="M1234.51 363.25L1265.26 381L1296 363.25V327.75L1265.26 310" stroke="#10323C"/>
<path d="M588.512 -7.75L619.256 10L650 -7.75V-43.25L619.256 -61" stroke="#10323C"/>
<path d="M496.512 10.25L527.256 28L558 10.25V-25.25L527.256 -43" stroke="#10323C"/>
<path d="M1111.51 363.25L1142.26 381L1173 363.25V327.75L1142.26 310" stroke="#10323C"/>
<path opacity="0.4" d="M66 328L35 310.25L35 274.75L66 257L97 274.75V310.25" stroke="#9FB1BD"/>
<path d="M589.512 346.25L620.256 364L651 346.25V310.75L620.256 293" stroke="#10323C"/>
<path d="M35.5122 204.25L66.2561 222L97 204.25V168.75L66.2561 151" stroke="#10323C"/>
<path d="M1265.51 310.25L1296.26 328L1327 310.25V274.75L1296.26 257" stroke="#10323C"/>
<path d="M65.5122 151.25L96.2561 169L127 151.25V115.75L96.2561 98" stroke="#10323C"/>
<path d="M1263.51 27.25L1294.26 45L1325 27.25V-8.25L1294.26 -26" stroke="#10323C"/>
<path opacity="0.4" d="M897 345L866 327.25V291.75L897 274L928 291.75V327.25" stroke="#9FB1BD"/>
<path d="M958.25 345.433L958.5 345.577L958.75 345.433L989.494 327.683L989.744 327.539V327.25V291.75V291.461L989.494 291.317L958.75 273.567L958.5 273.423L958.25 273.567L927.506 291.317L927.256 291.461V291.75V327.25V327.539L927.506 327.683L958.25 345.433Z" stroke="#10323C"/>
<path d="M835.512 345.25L866.256 363L897 345.25V309.75L866.256 292" stroke="#10323C"/>
<path d="M958.512 345.25L989.256 363L1020 345.25V309.75L989.256 292" stroke="#10323C"/>
<path d="M866.512 363.25L897.256 381L928 363.25V327.75L897.256 310" stroke="#10323C"/>
<path d="M35.25 27.433L35.5 27.5774L35.75 27.433L66.4939 9.68301L66.7439 9.53868V9.25V-26.25V-26.5387L66.4939 -26.683L35.75 -44.433L35.5 -44.5773L35.25 -44.433L4.5061 -26.683L4.2561 -26.5387V-26.25V9.25V9.53868L4.5061 9.68301L35.25 27.433Z" stroke="#10323C"/>
<path d="M35.25 98.433L35.5 98.5774L35.75 98.433L66.4939 80.683L66.7439 80.5387V80.25V44.75V44.4613L66.4939 44.317L35.75 26.567L35.5 26.4227L35.25 26.567L4.5061 44.317L4.2561 44.4613V44.75V80.25V80.5387L4.5061 80.683L35.25 98.433Z" stroke="#10323C"/>
<path d="M35.5122 27.25L66.2561 45L97 27.25V-8.25L66.2561 -26" stroke="#10323C"/>
<path d="M35.5122 98.25L66.2561 116L97 98.25V62.75L66.2561 45" stroke="#10323C"/>
<path d="M156.512 -7.75L187.256 10L218 -7.75V-43.25L187.256 -61" stroke="#10323C"/>
<path opacity="0.4" d="M65 45L34 27.25L34 -8.25L65 -26L96 -8.25V27.25" stroke="#9FB1BD"/>
<path d="M65.25 80.433L65.5 80.5774L65.75 80.433L96.4939 62.683L96.7439 62.5387V62.25V26.75V26.4613L96.4939 26.317L65.75 8.56699L65.5 8.42265L65.25 8.56699L34.5061 26.317L34.2561 26.4613V26.75V62.25V62.5387L34.5061 62.683L65.25 80.433Z" stroke="#10323C"/>
<path d="M3.51219 45.25L34.2561 63L65 45.25V9.75L34.2561 -8" stroke="#10323C"/>
<path d="M65.5122 80.25L96.2561 98L127 80.25V44.75L96.2561 27" stroke="#10323C"/>
<path d="M96.5122 27.25L127.256 45L158 27.25V-8.25L127.256 -26" stroke="#10323C"/>
</svg>
