<svg width="1360" height="460" viewBox="0 0 1360 460" fill="none" xmlns="http://www.w3.org/2000/svg">
<path opacity="0.4" d="M1260.81 346.74L1229.11 328.743V292.75L1260.81 274.753L1292.51 292.75V328.743" stroke="#9FB1BD"/>
<path opacity="0.4" d="M1072.66 454.214L1040.96 436.217V400.224L1072.66 382.227L1104.36 400.224V436.217" stroke="#9FB1BD"/>
<path d="M1135.3 454.648L1135.55 454.79L1135.8 454.648L1167.23 436.651L1167.49 436.507V436.217V400.224V399.934L1167.23 399.79L1135.8 381.793L1135.55 381.651L1135.3 381.793L1103.86 399.79L1103.61 399.934V400.224V436.217V436.507L1103.86 436.651L1135.3 454.648Z" stroke="#48707B"/>
<path opacity="0.4" d="M1198.44 526.201L1166.74 508.204V472.21L1198.44 454.214L1230.14 472.21V508.204" stroke="#9FB1BD"/>
<path d="M1135.56 454.467L1167 472.464L1198.44 454.467V418.474L1167 400.477" stroke="#48707B"/>
<path d="M1041.49 472.718L1072.92 490.714L1104.36 472.718V436.724L1072.92 418.727" stroke="#48707B"/>
<path opacity="0.4" d="M1135.04 418.728L1103.34 400.731V364.737L1135.04 346.741L1166.74 364.737V400.731" stroke="#9FB1BD"/>
<path d="M1230.66 508.204L1262.1 526.201L1293.53 508.204V472.21L1262.1 454.214" stroke="#48707B"/>
<path d="M1104.62 508.385L1104.87 508.527L1105.12 508.385L1136.56 490.388L1136.81 490.244V489.954V453.96V453.671L1136.56 453.527L1105.12 435.53L1104.87 435.388L1104.62 435.53L1073.19 453.527L1072.93 453.671V453.96V489.954V490.244L1073.19 490.388L1104.62 508.385Z" stroke="#48707B"/>
<path d="M1009.79 454.467L1041.22 472.464L1072.66 454.467V418.474L1041.22 400.477" stroke="#48707B"/>
<path d="M1072.16 418.981L1103.6 436.978L1135.04 418.981V382.987L1103.6 364.991" stroke="#48707B"/>
<path d="M1167.26 400.731L1198.7 418.728L1230.14 400.731V364.737L1198.7 346.741" stroke="#48707B"/>
<path opacity="0.4" d="M851.79 364.991L820.09 346.994V311L851.79 293.004L883.489 311V346.994" stroke="#9FB1BD"/>
<path opacity="0.4" d="M160.541 472.464L128.842 454.467V418.474L160.541 400.477L192.241 418.474V454.467" stroke="#9FB1BD"/>
<path opacity="0.4" d="M602.286 472.464L570.586 454.467V418.474L602.286 400.477L633.985 418.474V454.467" stroke="#9FB1BD"/>
<path opacity="0.4" d="M1041.98 507.951L1010.29 489.954V453.96L1041.98 435.964L1073.68 453.96V489.954" stroke="#9FB1BD"/>
<path opacity="0.4" d="M664.662 436.978L632.962 418.981V382.987L664.662 364.991L696.361 382.987V418.981" stroke="#9FB1BD"/>
<path d="M664.924 472.898L665.173 473.04L665.421 472.898L696.859 454.901L697.11 454.757V454.467V418.474V418.184L696.859 418.04L665.421 400.043L665.173 399.901L664.924 400.043L633.487 418.04L633.235 418.184V418.474V454.467V454.757L633.487 454.901L664.924 472.898Z" stroke="#48707B"/>
<path d="M539.411 472.718L570.848 490.714L602.286 472.718V436.724L570.848 418.727" stroke="#48707B"/>
<path d="M601.787 437.231L633.224 455.228L664.662 437.231V401.238L633.224 383.241" stroke="#48707B"/>
<path d="M665.185 472.718L696.623 490.714L728.06 472.718V436.724L696.623 418.727" stroke="#48707B"/>
<path d="M696.885 418.981L728.322 436.978L759.759 418.981V382.987L728.322 364.991" stroke="#48707B"/>
<path d="M571.11 490.968L602.547 508.964L633.985 490.968V454.974L602.547 436.977" stroke="#48707B"/>
<path d="M570.849 419.161L571.098 419.304L571.346 419.161L602.783 401.165L603.035 401.021V400.731V364.737V364.447L602.783 364.303L571.346 346.307L571.098 346.164L570.849 346.307L539.412 364.303L539.16 364.447V364.737V400.731V401.021L539.412 401.165L570.849 419.161Z" stroke="#48707B"/>
<path d="M725.516 364.23L756.954 382.227L788.391 364.23V328.237L756.954 310.24" stroke="#48707B"/>
<path d="M476.013 437.231L507.45 455.228L538.887 437.231V401.238L507.45 383.241" stroke="#48707B"/>
<path opacity="0.4" d="M915.188 472.464L883.489 454.467V418.474L915.188 400.477L946.887 418.474V454.467" stroke="#9FB1BD"/>
<path opacity="0.4" d="M796.571 72.9868L764.872 54.9901V18.9966L796.571 0.999818L828.271 18.9966V54.9901" stroke="#9FB1BD"/>
<path d="M979.11 508.204L1010.55 526.201L1041.98 508.204V472.21L1010.55 454.214" stroke="#48707B"/>
<path d="M914.428 365.425L914.677 365.567L914.925 365.425L946.363 347.428L946.614 347.284V346.994V311V310.711L946.363 310.567L914.925 292.57L914.677 292.428L914.428 292.57L882.991 310.567L882.739 310.711V311V346.994V347.284L882.991 347.428L914.428 365.425Z" stroke="#48707B"/>
<path opacity="0.4" d="M977.564 436.978L945.865 418.981V382.987L977.564 364.991L1009.26 382.987V418.981" stroke="#9FB1BD"/>
<path d="M914.689 365.244L946.127 383.241L977.564 365.244V329.25L946.127 311.254" stroke="#48707B"/>
<path d="M820.614 383.494L852.051 401.491L883.489 383.494V347.501L852.051 329.504" stroke="#48707B"/>
<path opacity="0.4" d="M914.166 329.504L882.466 311.507V275.514L914.166 257.517L945.865 275.514V311.507" stroke="#9FB1BD"/>
<path d="M977.827 472.898L978.075 473.04L978.324 472.898L1009.76 454.901L1010.01 454.757V454.467V418.474V418.184L1009.76 418.04L978.324 400.043L978.075 399.901L977.827 400.043L946.389 418.04L946.138 418.184V418.474V454.467V454.757L946.389 454.901L977.827 472.898Z" stroke="#48707B"/>
<path d="M852.313 472.718L883.751 490.714L915.188 472.718V436.724L883.751 418.727" stroke="#48707B"/>
<path d="M914.689 437.231L946.127 455.228L977.564 437.231V401.238L946.127 383.241" stroke="#48707B"/>
<path d="M978.088 472.718L1009.53 490.714L1040.96 472.718V436.724L1009.53 418.727" stroke="#48707B"/>
<path d="M1009.79 418.981L1041.22 436.978L1072.66 418.981V382.987L1041.22 364.991" stroke="#48707B"/>
<path d="M884.012 490.968L915.45 508.964L946.887 490.968V454.974L915.45 436.977" stroke="#48707B"/>
<path d="M883.752 419.161L884 419.304L884.248 419.161L915.686 401.165L915.937 401.021V400.731V364.737V364.447L915.686 364.303L884.248 346.307L884 346.164L883.752 346.307L852.314 364.303L852.063 364.447V364.737V400.731V401.021L852.314 401.165L883.752 419.161Z" stroke="#48707B"/>
<path d="M788.915 365.244L820.352 383.241L851.79 365.244V329.25L820.352 311.254" stroke="#48707B"/>
<path d="M851.291 329.758L882.728 347.754L914.166 329.758V293.764L882.728 275.767" stroke="#48707B"/>
<path d="M852.313 472.718L883.751 490.714L915.188 472.718V436.724L883.751 418.727" stroke="#48707B"/>
<path d="M788.915 437.231L820.352 455.228L851.79 437.231V401.238L820.352 383.241" stroke="#48707B"/>
<path d="M946.388 311.507L977.826 329.504L1009.26 311.507V275.514L977.826 257.517" stroke="#48707B"/>
<path opacity="0.4" d="M476.511 223.044L444.812 205.048V169.054L476.511 151.057L508.21 169.054V205.048" stroke="#9FB1BD"/>
<path opacity="0.4" d="M821.113 418.728L789.413 400.731V364.737L821.113 346.741L852.812 364.737V400.731" stroke="#9FB1BD"/>
<path opacity="0.4" d="M538.887 187.558L507.188 169.561V133.567L538.887 115.571L570.586 133.567V169.561" stroke="#9FB1BD"/>
<path opacity="0.4" d="M381.414 455.228L349.714 437.231V401.238L381.414 383.241L413.113 401.238V437.231" stroke="#9FB1BD"/>
<path d="M539.15 223.478L539.398 223.621L539.647 223.478L571.084 205.482L571.336 205.338V205.048V169.054V168.764L571.084 168.62L539.647 150.623L539.398 150.481L539.15 150.623L507.713 168.62L507.461 168.764V169.054V205.048V205.338L507.713 205.482L539.15 223.478Z" stroke="#48707B"/>
<path d="M444.052 455.662L444.301 455.804L444.549 455.662L475.987 437.665L476.238 437.521V437.231V401.238V400.948L475.987 400.804L444.549 382.807L444.301 382.665L444.052 382.807L412.615 400.804L412.363 400.948V401.238V437.231V437.521L412.615 437.665L444.052 455.662Z" stroke="#48707B"/>
<path d="M413.636 223.298L445.074 241.294L476.511 223.298V187.304L445.074 169.307" stroke="#48707B"/>
<path d="M476.013 187.811L507.45 205.808L538.887 187.811V151.818L507.45 133.821" stroke="#48707B"/>
<path d="M539.411 223.298L570.848 241.294L602.286 223.298V187.304L570.848 169.307" stroke="#48707B"/>
<path d="M318.539 455.481L349.976 473.478L381.414 455.481V419.488L349.976 401.491" stroke="#48707B"/>
<path d="M571.11 169.561L602.547 187.558L633.985 169.561V133.567L602.547 115.571" stroke="#48707B"/>
<path d="M445.336 241.548L476.773 259.545L508.21 241.548V205.555L476.773 187.558" stroke="#48707B"/>
<path opacity="0.4" d="M507.188 527.215L475.489 509.218V473.225L507.188 455.228L538.887 473.225V509.218" stroke="#9FB1BD"/>
<path d="M445.075 169.742L445.323 169.884L445.572 169.742L477.009 151.745L477.261 151.601V151.311V115.317V115.027L477.009 114.883L445.572 96.8867L445.323 96.7445L445.075 96.8867L413.637 114.883L413.386 115.027V115.317V151.311V151.601L413.637 151.745L445.075 169.742Z" stroke="#48707B"/>
<path d="M444.313 455.481L475.751 473.478L507.188 455.481V419.488L475.751 401.491" stroke="#48707B"/>
<path d="M413.636 223.298L445.074 241.294L476.511 223.298V187.304L445.074 169.307" stroke="#48707B"/>
<path d="M350.238 473.732L381.675 491.729L413.113 473.732V437.738L381.675 419.742" stroke="#48707B"/>
<path d="M257.185 490.968L288.623 508.964L320.06 490.968V454.974L288.623 436.977" stroke="#48707B"/>
<path d="M255.14 348.008L286.578 366.004L318.015 348.008V312.014L286.578 294.017" stroke="#48707B"/>
<path d="M223.18 472.898L223.429 473.04L223.677 472.898L255.115 454.901L255.366 454.757V454.467V418.474V418.184L255.115 418.04L223.677 400.043L223.429 399.901L223.18 400.043L191.743 418.04L191.491 418.184V418.474V454.467V454.757L191.743 454.901L223.18 472.898Z" stroke="#48707B"/>
<path d="M223.441 472.718L254.879 490.714L286.316 472.718V436.724L254.879 418.727" stroke="#48707B"/>
<path d="M129.366 490.968L160.803 508.964L192.241 490.968V454.974L160.803 436.977" stroke="#48707B"/>
<path opacity="0.4" d="M222.917 436.978L191.218 418.981V382.987L222.917 364.991L254.617 382.987V418.981" stroke="#9FB1BD"/>
<path opacity="0.4" d="M287.338 329.504L255.639 311.507V275.514L287.338 257.517L319.038 275.514V311.507" stroke="#9FB1BD"/>
<path opacity="0.4" d="M632.962 526.201L601.263 508.204V472.21L632.962 454.214L664.662 472.21V508.204" stroke="#9FB1BD"/>
<path d="M413.376 509.398L413.624 509.54L413.872 509.398L445.31 491.402L445.561 491.258V490.968V454.974V454.684L445.31 454.54L413.872 436.543L413.624 436.401L413.376 436.543L381.938 454.54L381.687 454.684V454.974V490.968V491.258L381.938 491.402L413.376 509.398Z" stroke="#48707B"/>
<path d="M632.464 490.968L663.901 508.964L695.338 490.968V454.974L663.901 436.977" stroke="#48707B"/>
<path d="M192.504 526.635L192.752 526.777L193 526.635L224.438 508.638L224.689 508.494V508.204V472.21V471.921L224.438 471.777L193 453.78L192.752 453.638L192.504 453.78L161.066 471.777L160.815 471.921V472.21V508.204V508.494L161.066 508.638L192.504 526.635Z" stroke="#48707B"/>
<path d="M97.6668 472.718L129.104 490.714L160.542 472.718V436.724L129.104 418.727" stroke="#48707B"/>
<path d="M727.561 472.718L758.999 490.714L790.436 472.718V436.724L758.999 418.727" stroke="#48707B"/>
<path d="M160.043 437.231L191.48 455.228L222.917 437.231V401.238L191.48 383.241" stroke="#48707B"/>
<path d="M758.238 418.981L789.675 436.978L821.113 418.981V382.987L789.675 364.991" stroke="#48707B"/>
<path d="M255.14 418.981L286.578 436.978L318.015 418.981V382.987L286.578 364.991" stroke="#48707B"/>
<path opacity="0.4" d="M129.865 526.201L98.1654 508.204V472.21L129.865 454.214L161.564 472.21V508.204" stroke="#9FB1BD"/>
<path opacity="0.4" d="M538.887 364.991L507.188 346.994V311L538.887 293.004L570.586 311V346.994" stroke="#9FB1BD"/>
<path d="M1197.94 346.994L1229.37 364.991L1260.81 346.994V311L1229.37 293.004" stroke="#48707B"/>
<path d="M601.526 365.425L601.774 365.567L602.023 365.425L633.46 347.428L633.712 347.284V346.994V311V310.711L633.46 310.567L602.023 292.57L601.774 292.428L601.526 292.57L570.089 310.567L569.837 310.711V311V346.994V347.284L570.089 347.428L601.526 365.425Z" stroke="#48707B"/>
<path d="M601.787 365.244L633.224 383.241L664.662 365.244V329.25L633.224 311.254" stroke="#48707B"/>
<path d="M507.712 383.494L539.149 401.491L570.586 383.494V347.501L539.149 329.504" stroke="#48707B"/>
<path opacity="0.4" d="M601.263 329.504L569.564 311.507V275.514L601.263 257.517L632.962 275.514V311.507" stroke="#9FB1BD"/>
<path d="M1323.45 347.174L1323.7 347.316L1323.95 347.174L1355.39 329.177L1355.64 329.033V328.743V292.75V292.46L1355.39 292.316L1323.95 274.319L1323.7 274.177L1323.45 274.319L1292.01 292.316L1291.76 292.46V292.75V328.743V329.033L1292.01 329.177L1323.45 347.174Z" stroke="#48707B"/>
<path d="M571.11 205.048L602.547 223.044L633.985 205.048V169.054L602.547 151.057" stroke="#48707B"/>
<path d="M538.388 329.758L569.826 347.754L601.263 329.758V293.764L569.826 275.767" stroke="#48707B"/>
<path d="M633.486 311.507L664.923 329.504L696.361 311.507V275.514L664.923 257.517" stroke="#48707B"/>
<path d="M664.163 257.77L695.6 275.767L727.038 257.77V221.777L695.6 203.78" stroke="#48707B"/>
<path d="M1292.01 400.731L1323.45 418.728L1354.89 400.731V364.737L1323.45 346.741" stroke="#48707B"/>
<path d="M1224.52 206.061L1255.96 224.058L1287.4 206.061V170.068L1255.96 152.071" stroke="#48707B"/>
<path opacity="0.4" d="M35.7895 364.991L4.09021 346.994L4.09021 311L35.7895 293.004L67.4888 311V346.994" stroke="#9FB1BD"/>
<path d="M36.0524 400.911L36.3008 401.053L36.5492 400.911L67.9866 382.914L68.2382 382.77V382.48V346.487V346.197L67.9866 346.053L36.5492 328.056L36.3008 327.914L36.0524 328.056L4.61497 346.053L4.36338 346.197V346.487V382.48V382.77L4.61497 382.914L36.0524 400.911Z" stroke="#48707B"/>
<path d="M36.0524 472.898L36.3008 473.04L36.5492 472.898L67.9866 454.901L68.2382 454.757V454.467V418.474V418.184L67.9866 418.04L36.5492 400.043L36.3008 399.901L36.0524 400.043L4.61497 418.04L4.36338 418.184V418.474V454.467V454.757L4.61497 454.901L36.0524 472.898Z" stroke="#48707B"/>
<path d="M36.3132 400.731L67.7506 418.728L99.188 400.731V364.737L67.7506 346.741" stroke="#48707B"/>
<path d="M68.0125 346.994L99.4498 364.991L130.887 346.994V311L99.4498 293.004" stroke="#48707B"/>
<path d="M36.3132 472.718L67.7506 490.714L99.188 472.718V436.724L67.7506 418.727" stroke="#48707B"/>
<path d="M160.043 293.257L191.48 311.254L222.917 293.257V257.264L191.48 239.267" stroke="#48707B"/>
<path d="M160.043 365.244L191.48 383.241L222.917 365.244V329.25L191.48 311.254" stroke="#48707B"/>
<path opacity="0.4" d="M192.241 346.74L160.542 328.743V292.75L192.241 274.753L223.94 292.75V328.743" stroke="#9FB1BD"/>
<path opacity="0.4" d="M66.4662 418.728L34.767 400.731L34.767 364.737L66.4662 346.741L98.1655 364.737V400.731" stroke="#9FB1BD"/>
<path d="M66.7291 454.648L66.9775 454.79L67.2259 454.648L98.6633 436.651L98.9149 436.507V436.217V400.224V399.934L98.6633 399.79L67.2259 381.793L66.9775 381.651L66.7291 381.793L35.2917 399.79L35.0401 399.934V400.224V436.217V436.507L35.2917 436.651L66.7291 454.648Z" stroke="#48707B"/>
<path d="M3.59156 418.981L35.0289 436.978L66.4663 418.981V382.987L35.0289 364.991" stroke="#48707B"/>
<path d="M66.99 454.467L98.4274 472.464L129.865 454.467V418.474L98.4274 400.477" stroke="#48707B"/>
<path d="M98.6892 400.731L130.127 418.728L161.564 400.731V364.737L130.127 346.741" stroke="#48707B"/>
<path d="M129.366 346.994L160.803 364.991L192.241 346.994V311L160.803 293.004" stroke="#48707B"/>
<path d="M4.61402 239.52L36.0514 257.517L67.4888 239.52V203.527L36.0514 185.53" stroke="#48707B"/>
</svg>
