<svg width="1360" height="772" viewBox="0 0 1360 772" fill="none" xmlns="http://www.w3.org/2000/svg">
<path opacity="0.4" d="M99.188 419.073L130.887 437.392V474.03L99.188 492.349L67.4888 474.03V437.392" stroke="#9FB1BD"/>
<path opacity="0.4" d="M287.338 309.677L319.038 327.996V364.633L287.338 382.952L255.639 364.633V327.996" stroke="#9FB1BD"/>
<path opacity="0.4" d="M223.94 200.28L255.639 218.599V255.237L223.94 273.555L192.241 255.237V218.599" stroke="#9FB1BD"/>
<path d="M224.703 309.245L224.451 309.098L224.199 309.245L192.762 327.564L192.514 327.708V327.996V364.633V364.921L192.762 365.065L224.199 383.384L224.451 383.531L224.703 383.384L256.14 365.065L256.389 364.921V364.633V327.996V327.708L256.14 327.564L224.703 309.245Z" stroke="#48707B"/>
<path opacity="0.4" d="M161.564 236.402L193.263 254.721V291.358L161.564 309.677L129.865 291.358V254.721" stroke="#9FB1BD"/>
<path opacity="0.4" d="M223.94 127.005L255.639 145.324V181.962L223.94 200.28L192.241 181.962V145.324" stroke="#9FB1BD"/>
<path d="M224.439 309.419L193.001 291.1L161.564 309.419V346.056L193.001 364.375" stroke="#48707B"/>
<path d="M318.514 290.842L287.077 272.523L255.639 290.842V327.48L287.077 345.798" stroke="#48707B"/>
<path opacity="0.4" d="M224.962 345.798L256.662 364.117V400.755L224.962 419.073L193.263 400.755V364.117" stroke="#9FB1BD"/>
<path d="M161.304 199.848L161.053 199.702L160.801 199.848L129.364 218.167L129.115 218.312V218.599V255.237V255.524L129.364 255.669L160.801 273.987L161.053 274.134L161.304 273.987L192.742 255.669L192.99 255.524V255.237V218.599V218.312L192.742 218.167L161.304 199.848Z" stroke="#48707B"/>
<path d="M161.304 126.573L161.053 126.427L160.801 126.573L129.364 144.892L129.115 145.037V145.324V181.962V182.249L129.364 182.394L160.801 200.712L161.053 200.859L161.304 200.712L192.742 182.394L192.99 182.249V181.962V145.324V145.037L192.742 144.892L161.304 126.573Z" stroke="#48707B"/>
<path d="M286.815 200.022L255.377 181.704L223.94 200.022V236.66L255.377 254.979" stroke="#48707B"/>
<path d="M224.439 236.144L193.001 217.825L161.564 236.144V272.781L193.001 291.1" stroke="#48707B"/>
<path d="M161.04 200.022L129.603 181.704L98.1655 200.022V236.66L129.603 254.979" stroke="#48707B"/>
<path d="M286.815 126.747L255.377 108.429L223.94 126.747V163.385L255.377 181.704" stroke="#48707B"/>
<path d="M129.341 254.721L97.9037 236.402L66.4663 254.721V291.358L97.9037 309.677" stroke="#48707B"/>
<path d="M255.115 181.446L223.678 163.127L192.241 181.446V218.083L223.678 236.402" stroke="#48707B"/>
<path opacity="0.4" d="M98.1656 53.7303L129.865 72.049V108.687L98.1656 127.005L66.4663 108.687V72.049" stroke="#9FB1BD"/>
<path d="M255.38 254.547L255.128 254.4L254.876 254.547L223.439 272.865L223.191 273.01V273.297V309.935V310.222L223.439 310.367L254.876 328.686L255.128 328.832L255.38 328.686L286.817 310.367L287.065 310.222V309.935V273.297V273.01L286.817 272.865L255.38 254.547Z" stroke="#48707B"/>
<path d="M350.213 309.419L318.776 291.1L287.338 309.419V346.056L318.776 364.375" stroke="#48707B"/>
<path d="M161.04 126.747L129.603 108.429L98.1655 126.747V163.385L129.603 181.704" stroke="#48707B"/>
<path d="M287.837 345.54L256.4 327.222L224.962 345.54V382.178L256.4 400.497" stroke="#48707B"/>
<path d="M286.815 200.022L255.377 181.704L223.94 200.022V236.66L255.377 254.979" stroke="#48707B"/>
<path d="M255.115 108.171L223.678 89.8518L192.241 108.171V144.808L223.678 163.127" stroke="#48707B"/>
<path d="M348.168 90.6258L316.731 72.3071L285.293 90.6258V127.263L316.731 145.582" stroke="#48707B"/>
<path d="M350.213 236.144L318.776 217.825L287.338 236.144V272.781L318.776 291.1" stroke="#48707B"/>
<path d="M192.74 364.117L161.302 345.798L129.865 364.117V400.755L161.302 419.073" stroke="#48707B"/>
<path opacity="0.4" d="M508.21 400.497L539.91 418.815V455.453L508.21 473.772L476.511 455.453V418.815" stroke="#9FB1BD"/>
<path opacity="0.4" d="M946.887 71.275L978.586 89.5938V126.231L946.887 144.55L915.188 126.231V89.5938" stroke="#9FB1BD"/>
<path opacity="0.4" d="M1199.46 291.1L1231.16 309.419V346.056L1199.46 364.375L1167.76 346.056V309.419" stroke="#9FB1BD"/>
<path opacity="0.4" d="M757.714 291.1L789.414 309.419V346.056L757.714 364.375L726.015 346.056V309.419" stroke="#9FB1BD"/>
<path opacity="0.4" d="M318.015 254.979L349.714 273.297V309.935L318.015 328.254L286.316 309.935V273.297" stroke="#9FB1BD"/>
<path opacity="0.4" d="M695.338 327.222L727.038 345.54V382.178L695.338 400.497L663.639 382.178V345.54" stroke="#9FB1BD"/>
<path opacity="0.4" d="M757.714 217.825L789.414 236.144V272.781L757.714 291.1L726.015 272.781V236.144" stroke="#9FB1BD"/>
<path d="M191.981 71.8751L191.729 71.7284L191.478 71.8751L160.04 90.1938L159.792 90.3385V90.6258V127.263V127.551L160.04 127.695L191.478 146.014L191.729 146.161L191.981 146.014L223.419 127.695L223.667 127.551V127.263V90.6258V90.3385L223.419 90.1938L191.981 71.8751Z" stroke="#48707B"/>
<path opacity="0.4" d="M694.316 108.429L726.015 126.747V163.385L694.316 181.704L662.617 163.385V126.747" stroke="#9FB1BD"/>
<path d="M695.079 290.668L694.827 290.521L694.575 290.668L663.138 308.987L662.89 309.132V309.419V346.056V346.344L663.138 346.488L694.575 364.807L694.827 364.954L695.079 364.807L726.516 346.488L726.765 346.344V346.056V309.419V309.132L726.516 308.987L695.079 290.668Z" stroke="#48707B"/>
<path d="M695.079 217.393L694.827 217.246L694.575 217.393L663.138 235.712L662.89 235.856V236.144V272.781V273.069L663.138 273.213L694.575 291.532L694.827 291.679L695.079 291.532L726.516 273.213L726.765 273.069V272.781V236.144V235.856L726.516 235.712L695.079 217.393Z" stroke="#48707B"/>
<path d="M820.589 290.842L789.152 272.523L757.714 290.842V327.48L789.152 345.798" stroke="#48707B"/>
<path d="M758.213 326.964L726.776 308.645L695.338 326.964V363.601L726.776 381.92" stroke="#48707B"/>
<path d="M694.815 290.842L663.377 272.523L631.94 290.842V327.48L663.377 345.798" stroke="#48707B"/>
<path d="M820.589 217.567L789.152 199.248L757.714 217.567V254.205L789.152 272.523" stroke="#48707B"/>
<path d="M663.115 345.54L631.678 327.222L600.241 345.54V382.178L631.678 400.497" stroke="#48707B"/>
<path d="M788.89 272.265L757.453 253.947L726.015 272.265V308.903L757.453 327.222" stroke="#48707B"/>
<path opacity="0.4" d="M631.94 144.55L663.639 162.869V199.506L631.94 217.825L600.241 199.506V162.869" stroke="#9FB1BD"/>
<path d="M789.154 345.366L788.902 345.22L788.651 345.366L757.213 363.685L756.965 363.83V364.117V400.755V401.042L757.213 401.187L788.651 419.505L788.902 419.652L789.154 419.505L820.591 401.187L820.84 401.042V400.755V364.117V363.83L820.591 363.685L789.154 345.366Z" stroke="#48707B"/>
<path d="M694.815 217.567L663.377 199.248L631.94 217.567V254.205L663.377 272.523" stroke="#48707B"/>
<path d="M634.484 401.271L603.046 382.952L571.609 401.271V437.908L603.046 456.227" stroke="#48707B"/>
<path d="M788.89 198.99L757.453 180.672L726.015 198.99V235.628L757.453 253.947" stroke="#48707B"/>
<path d="M631.68 107.997L631.429 107.85L631.177 107.997L599.74 126.315L599.491 126.46V126.747V163.385V163.672L599.74 163.817L631.177 182.136L631.429 182.282L631.68 182.136L663.118 163.817L663.366 163.672V163.385V126.747V126.46L663.118 126.315L631.68 107.997Z" stroke="#48707B"/>
<path d="M757.191 108.171L725.753 89.8518L694.316 108.171V144.808L725.753 163.127" stroke="#48707B"/>
<path d="M881.943 181.446L850.505 163.127L819.068 181.446V218.083L850.505 236.402" stroke="#48707B"/>
<path d="M694.815 144.292L663.377 125.973L631.94 144.292V180.93L663.377 199.248" stroke="#48707B"/>
<path d="M883.987 326.964L852.55 308.645L821.113 326.964V363.601L852.55 381.92" stroke="#48707B"/>
<path opacity="0.4" d="M444.812 291.1L476.511 309.419V346.056L444.812 364.375L413.113 346.056V309.419" stroke="#9FB1BD"/>
<path d="M631.416 108.171L599.979 89.8518L568.542 108.171V144.808L599.979 163.127" stroke="#48707B"/>
<path opacity="0.4" d="M1136.06 181.704L1167.76 200.022V236.66L1136.06 254.979L1104.36 236.66V200.022" stroke="#9FB1BD"/>
<path d="M725.491 89.5938L694.054 71.275L662.617 89.5938V126.231L694.054 144.55" stroke="#48707B"/>
<path opacity="0.4" d="M563.429 697.725L595.128 716.044V752.681L563.429 771L531.729 752.681V716.044" stroke="#9FB1BD"/>
<path opacity="0.4" d="M506.166 145.582L537.865 163.901V200.538L506.166 218.857L474.466 200.538V163.901" stroke="#9FB1BD"/>
<path d="M725.756 162.695L725.504 162.548L725.252 162.695L693.815 181.014L693.567 181.158V181.446V218.083V218.37L693.815 218.515L725.252 236.834L725.504 236.981L725.756 236.834L757.193 218.515L757.441 218.37V218.083V181.446V181.158L757.193 181.014L725.756 162.695Z" stroke="#48707B"/>
<path opacity="0.4" d="M443.79 181.704L475.489 200.022V236.66L443.79 254.979L412.09 236.66V200.022" stroke="#9FB1BD"/>
<path d="M443.53 145.15L443.278 145.003L443.027 145.15L411.589 163.469L411.341 163.614V163.901V200.538V200.826L411.589 200.97L443.027 219.289L443.278 219.436L443.53 219.289L474.967 200.97L475.216 200.826V200.538V163.901V163.614L474.967 163.469L443.53 145.15Z" stroke="#48707B"/>
<path opacity="0.4" d="M380.391 72.3071L412.09 90.6258V127.263L380.391 145.582L348.692 127.263V90.6258" stroke="#9FB1BD"/>
<path d="M569.04 145.324L537.603 127.005L506.166 145.324V181.962L537.603 200.28" stroke="#48707B"/>
<path d="M506.664 181.446L475.227 163.127L443.79 181.446V218.083L475.227 236.402" stroke="#48707B"/>
<path d="M443.266 145.324L411.828 127.005L380.391 145.324V181.962L411.828 200.28" stroke="#48707B"/>
<path d="M569.04 72.049L537.603 53.7303L506.166 72.049V108.687L537.603 127.005" stroke="#48707B"/>
<path d="M411.567 200.022L380.129 181.704L348.692 200.022V236.66L380.129 254.979" stroke="#48707B"/>
<path d="M537.341 126.747L505.904 108.429L474.466 126.747V163.385L505.904 181.704" stroke="#48707B"/>
<path d="M380.89 254.721L349.453 236.402L318.015 254.721V291.358L349.453 309.677" stroke="#48707B"/>
<path d="M445.575 400.065L445.323 399.918L445.071 400.065L413.634 418.383L413.386 418.528V418.815V455.453V455.74L413.634 455.885L445.071 474.204L445.323 474.35L445.575 474.204L477.012 455.885L477.261 455.74V455.453V418.815V418.528L477.012 418.383L445.575 400.065Z" stroke="#48707B"/>
<path opacity="0.4" d="M382.436 327.222L414.135 345.54V382.178L382.436 400.497L350.737 382.178V345.54" stroke="#9FB1BD"/>
<path opacity="0.4" d="M444.812 217.825L476.511 236.144V272.781L444.812 291.1L413.113 272.781V236.144" stroke="#9FB1BD"/>
<path d="M445.311 400.239L413.873 381.92L382.436 400.239V436.876L413.873 455.195" stroke="#48707B"/>
<path d="M539.386 381.662L507.949 363.343L476.511 381.662V418.299L507.949 436.618" stroke="#48707B"/>
<path opacity="0.4" d="M445.834 436.618L477.534 454.937V491.574L445.834 509.893L414.135 491.574V454.937" stroke="#9FB1BD"/>
<path d="M382.177 290.668L381.925 290.521L381.673 290.668L350.236 308.987L349.987 309.132V309.419V346.056V346.344L350.236 346.488L381.673 364.807L381.925 364.954L382.177 364.807L413.614 346.488L413.862 346.344V346.056V309.419V309.132L413.614 308.987L382.177 290.668Z" stroke="#48707B"/>
<path d="M382.177 217.393L381.925 217.246L381.673 217.393L350.236 235.712L349.987 235.856V236.144V272.781V273.069L350.236 273.213L381.673 291.532L381.925 291.679L382.177 291.532L413.614 273.213L413.862 273.069V272.781V236.144V235.856L413.614 235.712L382.177 217.393Z" stroke="#48707B"/>
<path d="M507.687 290.842L476.249 272.523L444.812 290.842V327.48L476.249 345.798" stroke="#48707B"/>
<path d="M445.311 326.964L413.873 308.645L382.436 326.964V363.601L413.873 381.92" stroke="#48707B"/>
<path d="M381.912 290.842L350.475 272.523L319.038 290.842V327.48L350.475 345.798" stroke="#48707B"/>
<path d="M350.213 345.54L318.776 327.222L287.338 345.54V382.178L318.776 400.497" stroke="#48707B"/>
<path d="M475.988 272.265L444.55 253.947L413.113 272.265V308.903L444.55 327.222" stroke="#48707B"/>
<path opacity="0.4" d="M319.038 144.55L350.737 162.869V199.506L319.038 217.825L287.338 199.506V162.869" stroke="#9FB1BD"/>
<path d="M476.252 345.366L476 345.22L475.748 345.366L444.311 363.685L444.063 363.83V364.117V400.755V401.042L444.311 401.187L475.748 419.505L476 419.652L476.252 419.505L507.689 401.187L507.937 401.042V400.755V364.117V363.83L507.689 363.685L476.252 345.366Z" stroke="#48707B"/>
<path d="M571.085 400.239L539.648 381.92L508.21 400.239V436.876L539.648 455.195" stroke="#48707B"/>
<path d="M381.912 217.567L350.475 199.248L319.038 217.567V254.205L350.475 272.523" stroke="#48707B"/>
<path d="M508.709 436.36L477.272 418.041L445.834 436.36V472.998L477.272 491.316" stroke="#48707B"/>
<path d="M507.687 290.842L476.249 272.523L444.812 290.842V327.48L476.249 345.798" stroke="#48707B"/>
<path d="M475.988 198.99L444.55 180.672L413.113 198.99V235.628L444.55 253.947" stroke="#48707B"/>
<path d="M757.191 108.171L725.753 89.8518L694.316 108.171V144.808L725.753 163.127" stroke="#48707B"/>
<path d="M569.04 181.446L537.603 163.127L506.166 181.446V218.083L537.603 236.402" stroke="#48707B"/>
<path d="M571.085 326.964L539.648 308.645L508.21 326.964V363.601L539.648 381.92" stroke="#48707B"/>
<path d="M413.612 454.937L382.174 436.618L350.737 454.937V491.574L382.174 509.893" stroke="#48707B"/>
<path opacity="0.4" d="M883.489 544.983L915.188 563.301V599.939L883.489 618.258L851.79 599.939V563.301" stroke="#9FB1BD"/>
<path opacity="0.4" d="M538.887 345.798L570.587 364.117V400.755L538.887 419.073L507.188 400.755V364.117" stroke="#9FB1BD"/>
<path opacity="0.4" d="M821.113 581.104L852.812 599.423V636.06L821.113 654.379L789.414 636.06V599.423" stroke="#9FB1BD"/>
<path opacity="0.4" d="M978.586 308.645L1010.29 326.964V363.601L978.586 381.92L946.887 363.601V326.964" stroke="#9FB1BD"/>
<path d="M412.853 162.695L412.602 162.548L412.35 162.695L380.912 181.014L380.664 181.158V181.446V218.083V218.37L380.912 218.515L412.35 236.834L412.602 236.981L412.853 236.834L444.291 218.515L444.539 218.37V218.083V181.446V181.158L444.291 181.014L412.853 162.695Z" stroke="#48707B"/>
<path opacity="0.4" d="M915.188 199.248L946.887 217.567V254.205L915.188 272.523L883.489 254.205V217.567" stroke="#9FB1BD"/>
<path d="M820.853 544.551L820.602 544.404L820.35 544.551L788.912 562.869L788.664 563.014V563.301V599.939V600.226L788.912 600.371L820.35 618.69L820.602 618.836L820.853 618.69L852.291 600.371L852.539 600.226V599.939V563.301V563.014L852.291 562.869L820.853 544.551Z" stroke="#48707B"/>
<path d="M915.951 308.213L915.699 308.066L915.447 308.213L884.01 326.532L883.762 326.676V326.964V363.601V363.888L884.01 364.033L915.447 382.352L915.699 382.499L915.951 382.352L947.388 364.033L947.637 363.888V363.601V326.964V326.676L947.388 326.532L915.951 308.213Z" stroke="#48707B"/>
<path d="M946.364 544.725L914.926 526.406L883.489 544.725V581.362L914.926 599.681" stroke="#48707B"/>
<path d="M883.987 580.846L852.55 562.527L821.113 580.846V617.484L852.55 635.802" stroke="#48707B"/>
<path d="M820.589 544.725L789.152 526.406L757.714 544.725V581.362L789.152 599.681" stroke="#48707B"/>
<path d="M1041.46 308.387L1010.02 290.068L978.586 308.387V345.024L1010.02 363.343" stroke="#48707B"/>
<path d="M788.89 599.423L757.453 581.104L726.015 599.423V636.06L757.453 654.379" stroke="#48707B"/>
<path d="M443.266 72.049L411.828 53.7303L380.391 72.049V108.687L411.828 127.005" stroke="#48707B"/>
<path d="M914.664 526.148L883.227 507.829L851.79 526.148V562.785L883.227 581.104" stroke="#48707B"/>
<path opacity="0.4" d="M852.812 235.37L884.511 253.689V290.326L852.812 308.645L821.113 290.326V253.689" stroke="#9FB1BD"/>
<path d="M914.928 599.249L914.677 599.102L914.425 599.249L882.988 617.568L882.739 617.712V618V654.637V654.925L882.988 655.069L914.425 673.388L914.677 673.535L914.928 673.388L946.366 655.069L946.614 654.925V654.637V618V617.712L946.366 617.568L914.928 599.249Z" stroke="#48707B"/>
<path d="M915.687 308.387L884.249 290.068L852.812 308.387V345.024L884.249 363.343" stroke="#48707B"/>
<path d="M946.364 544.725L914.926 526.406L883.489 544.725V581.362L914.926 599.681" stroke="#48707B"/>
<path d="M1009.76 289.81L978.325 271.491L946.887 289.81V326.448L978.325 344.766" stroke="#48707B"/>
<path d="M852.552 198.816L852.301 198.67L852.049 198.816L820.612 217.135L820.363 217.28V217.567V254.205V254.492L820.612 254.637L852.049 272.955L852.301 273.102L852.552 272.955L883.99 254.637L884.238 254.492V254.205V217.567V217.28L883.99 217.135L852.552 198.816Z" stroke="#48707B"/>
<path d="M978.063 198.99L946.625 180.672L915.188 198.99V235.628L946.625 253.947" stroke="#48707B"/>
<path d="M1102.81 272.265L1071.38 253.947L1039.94 272.265V308.903L1071.38 327.222" stroke="#48707B"/>
<path d="M915.687 235.112L884.249 216.793L852.812 235.112V271.749L884.249 290.068" stroke="#48707B"/>
<path d="M884.252 70.843L884 70.6963L883.748 70.843L852.311 89.1618L852.063 89.3064V89.5938V126.231V126.519L852.311 126.663L883.748 144.982L884 145.129L884.252 144.982L915.689 126.663L915.937 126.519V126.231V89.5938V89.3064L915.689 89.1618L884.252 70.843Z" stroke="#48707B"/>
<path opacity="0.4" d="M821.113 -2L852.812 16.3188V52.9563L821.113 71.275L789.414 52.9563V16.3188" stroke="#9FB1BD"/>
<path d="M883.987 71.017L852.55 52.6982L821.113 71.017V107.655L852.55 125.973" stroke="#48707B"/>
<path d="M1104.86 417.783L1073.42 399.465L1041.98 417.783V454.421L1073.42 472.74" stroke="#48707B"/>
<path d="M978.063 52.4403L946.625 34.1215L915.188 52.4403V89.0778L946.625 107.397" stroke="#48707B"/>
<path opacity="0.4" d="M884.511 107.397L916.21 125.715V162.353L884.511 180.672L852.812 162.353V125.715" stroke="#9FB1BD"/>
<path d="M852.288 198.99L820.851 180.672L789.414 198.99V235.628L820.851 253.947" stroke="#48707B"/>
<path d="M1136.82 290.668L1136.57 290.521L1136.32 290.668L1104.88 308.987L1104.63 309.132V309.419V346.056V346.344L1104.88 346.488L1136.32 364.807L1136.57 364.954L1136.82 364.807L1168.26 346.488L1168.51 346.344V346.056V309.419V309.132L1168.26 308.987L1136.82 290.668Z" stroke="#48707B"/>
<path opacity="0.4" d="M1073.68 217.825L1105.38 236.144V272.781L1073.68 291.1L1041.98 272.781V236.144" stroke="#9FB1BD"/>
<path opacity="0.4" d="M1136.06 108.429L1167.76 126.747V163.385L1136.06 181.704L1104.36 163.385V126.747" stroke="#9FB1BD"/>
<path d="M1136.56 290.842L1105.12 272.523L1073.68 290.842V327.48L1105.12 345.798" stroke="#48707B"/>
<path d="M946.364 180.414L914.926 162.095L883.489 180.414V217.051L914.926 235.37" stroke="#48707B"/>
<path d="M788.89 16.3188L757.453 -2L726.015 16.3188V52.9563L757.453 71.275" stroke="#48707B"/>
<path d="M1230.63 272.265L1199.2 253.947L1167.76 272.265V308.903L1199.2 327.222" stroke="#48707B"/>
<path opacity="0.4" d="M1137.08 327.222L1168.78 345.54V382.178L1137.08 400.497L1105.38 382.178V345.54" stroke="#9FB1BD"/>
<path opacity="0.4" d="M1072.66 436.618L1104.36 454.937V491.574L1072.66 509.893L1040.96 491.574V454.937" stroke="#9FB1BD"/>
<path d="M914.928 16.1448L914.677 15.9981L914.425 16.1448L882.988 34.4635L882.739 34.6082V34.8955V71.5331V71.8204L882.988 71.9651L914.425 90.2838L914.677 90.4305L914.928 90.2838L946.366 71.9651L946.614 71.8204V71.5331V34.8955V34.6082L946.366 34.4635L914.928 16.1448Z" stroke="#48707B"/>
<path d="M1073.42 181.272L1073.17 181.125L1072.92 181.272L1041.48 199.59L1041.24 199.735V200.022V236.66V236.947L1041.48 237.092L1072.92 255.411L1073.17 255.557L1073.42 255.411L1104.86 237.092L1105.11 236.947V236.66V200.022V199.735L1104.86 199.59L1073.42 181.272Z" stroke="#48707B"/>
<path d="M1009.76 71.017L978.325 52.6982L946.887 71.017V107.655L978.325 125.973" stroke="#48707B"/>
<path opacity="0.4" d="M727.038 236.402L758.737 254.721V291.358L727.038 309.677L695.338 291.358V254.721" stroke="#9FB1BD"/>
<path d="M1073.42 107.997L1073.17 107.85L1072.92 107.997L1041.48 126.315L1041.24 126.46V126.747V163.385V163.672L1041.48 163.817L1072.92 182.136L1073.17 182.282L1073.42 182.136L1104.86 163.817L1105.11 163.672V163.385V126.747V126.46L1104.86 126.315L1073.42 107.997Z" stroke="#48707B"/>
<path d="M947.386 107.139L915.949 88.8198L884.511 107.139V143.776L915.949 162.095" stroke="#48707B"/>
<path d="M1198.93 181.446L1167.5 163.127L1136.06 181.446V218.083L1167.5 236.402" stroke="#48707B"/>
<path d="M946.628 253.515L946.376 253.368L946.124 253.515L914.687 271.833L914.439 271.978V272.265V308.903V309.19L914.687 309.335L946.124 327.654L946.376 327.8L946.628 327.654L978.065 309.335L978.313 309.19V308.903V272.265V271.978L978.065 271.833L946.628 253.515Z" stroke="#48707B"/>
<path d="M1136.56 217.567L1105.12 199.248L1073.68 217.567V254.205L1105.12 272.523" stroke="#48707B"/>
<path d="M852.288 125.715L820.851 107.397L789.414 125.715V162.353L820.851 180.672" stroke="#48707B"/>
<path opacity="0.4" d="M977.564 16.5768L1009.26 34.8955V71.5331L977.564 89.8518L945.865 71.5331V34.8955" stroke="#9FB1BD"/>
<path d="M1322.66 107.139L1291.23 88.8198L1259.79 107.139V143.776L1291.23 162.095" stroke="#48707B"/>
<path d="M1073.16 181.446L1041.72 163.127L1010.29 181.446V218.083L1041.72 236.402" stroke="#48707B"/>
<path d="M1198.93 108.171L1167.5 89.8518L1136.06 108.171V144.808L1167.5 163.127" stroke="#48707B"/>
<path opacity="0.4" d="M601.263 163.127L632.962 181.446V218.083L601.263 236.402L569.564 218.083V181.446" stroke="#9FB1BD"/>
<path d="M1041.46 236.144L1010.02 217.825L978.586 236.144V272.781L1010.02 291.1" stroke="#48707B"/>
<path d="M789.912 236.144L758.475 217.825L727.038 236.144V272.781L758.475 291.1" stroke="#48707B"/>
<path d="M1167.24 162.869L1135.8 144.55L1104.36 162.869V199.506L1135.8 217.825" stroke="#48707B"/>
<path d="M727.536 272.265L696.099 253.947L664.662 272.265V308.903L696.099 327.222" stroke="#48707B"/>
<path opacity="0.4" d="M1010.29 35.1536L1041.98 53.4723V90.1098L1010.29 108.429L978.586 90.1098V53.4723" stroke="#9FB1BD"/>
<path d="M664.138 236.144L632.701 217.825L601.263 236.144V272.781L632.701 291.1" stroke="#48707B"/>
<path d="M1167.5 235.97L1167.25 235.823L1167 235.97L1135.56 254.289L1135.31 254.433V254.721V291.358V291.645L1135.56 291.79L1167 310.109L1167.25 310.256L1167.5 310.109L1198.94 291.79L1199.19 291.645V291.358V254.721V254.433L1198.94 254.289L1167.5 235.97Z" stroke="#48707B"/>
<path d="M789.912 162.869L758.475 144.55L727.038 162.869V199.506L758.475 217.825" stroke="#48707B"/>
<path d="M1262.33 290.842L1230.9 272.523L1199.46 290.842V327.48L1230.9 345.798" stroke="#48707B"/>
<path d="M632.439 290.842L601.001 272.523L569.564 290.842V327.48L601.001 345.798" stroke="#48707B"/>
<path d="M1073.16 108.171L1041.72 89.8518L1010.29 108.171V144.808L1041.72 163.127" stroke="#48707B"/>
<path d="M758.213 217.567L726.776 199.248L695.338 217.567V254.205L726.776 272.523" stroke="#48707B"/>
<path d="M1199.96 326.964L1168.52 308.645L1137.08 326.964V363.601L1168.52 381.92" stroke="#48707B"/>
<path d="M601.762 345.54L570.325 327.222L538.887 345.54V382.178L570.325 400.497" stroke="#48707B"/>
<path d="M1198.93 181.446L1167.5 163.127L1136.06 181.446V218.083L1167.5 236.402" stroke="#48707B"/>
<path d="M978.063 198.99L946.625 180.672L915.188 198.99V235.628L946.625 253.947" stroke="#48707B"/>
<path d="M1040.44 16.3188L1009 -2L977.564 16.3188V52.9563L1009 71.275" stroke="#48707B"/>
<path d="M1167.24 89.5938L1135.8 71.275L1104.36 89.5938V126.231L1135.8 144.55" stroke="#48707B"/>
<path opacity="0.4" d="M160.542 17.6088L192.241 35.9276V72.5651L160.542 90.8839L128.842 72.5651V35.9276" stroke="#9FB1BD"/>
<path d="M1260.29 72.049L1228.85 53.7303L1197.41 72.049V108.687L1228.85 127.005" stroke="#48707B"/>
<path d="M664.138 162.869L632.701 144.55L601.263 162.869V199.506L632.701 217.825" stroke="#48707B"/>
<path d="M1262.33 217.567L1230.9 199.248L1199.46 217.567V254.205L1230.9 272.523" stroke="#48707B"/>
<path d="M1104.86 345.54L1073.42 327.222L1041.98 345.54V382.178L1073.42 400.497" stroke="#48707B"/>
<path opacity="0.4" d="M1230.14 236.402L1261.83 254.721V291.358L1230.14 309.677L1198.44 291.358V254.721" stroke="#9FB1BD"/>
<path d="M1104.1 53.2983L1103.85 53.1516L1103.6 53.2983L1072.16 71.617L1071.91 71.7617V72.049V108.687V108.974L1072.16 109.119L1103.6 127.437L1103.85 127.584L1104.1 127.437L1135.54 109.119L1135.79 108.974V108.687V72.049V71.7617L1135.54 71.617L1104.1 53.2983Z" stroke="#48707B"/>
<path opacity="0.4" d="M821.113 400.497L852.812 418.815V455.453L821.113 473.772L789.414 455.453V418.815" stroke="#9FB1BD"/>
<path d="M97.906 17.1768L97.6543 17.0301L97.4025 17.1768L65.9652 35.4956L65.7169 35.6402V35.9276V72.5651V72.8524L65.9652 72.9971L97.4025 91.3159L97.6543 91.4626L97.906 91.3159L129.343 72.9971L129.592 72.8524V72.5651V35.9276V35.6402L129.343 35.4956L97.906 17.1768Z" stroke="#48707B"/>
<path d="M223.416 17.3508L191.979 -0.967957L160.542 17.3508V53.9883L191.979 72.3071" stroke="#48707B"/>
<path d="M97.6418 17.3508L66.2045 -0.967957L34.7671 17.3508V53.9883L66.2045 72.3071" stroke="#48707B"/>
<path d="M162.063 418.815L130.625 400.497L99.188 418.815V455.453L130.625 473.772" stroke="#48707B"/>
<path d="M758.477 400.065L758.226 399.918L757.974 400.065L726.536 418.383L726.288 418.528V418.815V455.453V455.74L726.536 455.885L757.974 474.204L758.226 474.35L758.477 474.204L789.915 455.885L790.163 455.74V455.453V418.815V418.528L789.915 418.383L758.477 400.065Z" stroke="#48707B"/>
<path d="M758.213 400.239L726.776 381.92L695.338 400.239V436.876L726.776 455.195" stroke="#48707B"/>
<path d="M852.288 381.662L820.851 363.343L789.414 381.662V418.299L820.851 436.618" stroke="#48707B"/>
<path opacity="0.4" d="M758.737 436.618L790.436 454.937V491.574L758.737 509.893L727.038 491.574V454.937" stroke="#9FB1BD"/>
<path d="M223.416 17.3508L191.979 -0.967957L160.542 17.3508V53.9883L191.979 72.3071" stroke="#48707B"/>
<path d="M36.5525 418.641L36.3008 418.495L36.049 418.641L4.61165 436.96L4.36338 437.105V437.392V474.03V474.317L4.61165 474.462L36.049 492.781L36.3008 492.927L36.5525 492.781L67.9899 474.462L68.2381 474.317V474.03V437.392V437.105L67.9899 436.96L36.5525 418.641Z" stroke="#48707B"/>
<path opacity="0.4" d="M1292.51 53.7303L1324.21 72.049V108.687L1292.51 127.005L1260.81 108.687V72.049" stroke="#9FB1BD"/>
<path d="M788.89 563.301L757.453 544.983L726.015 563.301V599.939L757.453 618.258" stroke="#48707B"/>
<path d="M821.612 436.36L790.174 418.041L758.737 436.36V472.998L790.174 491.316" stroke="#48707B"/>
<path d="M726.514 454.937L695.077 436.618L663.639 454.937V491.574L695.077 509.893" stroke="#48707B"/>
<path d="M757.191 34.8955L725.753 16.5768L694.316 34.8955V71.5331L725.753 89.8518" stroke="#48707B"/>
<path d="M1323.69 181.446L1292.25 163.127L1260.81 181.446V218.083L1292.25 236.402" stroke="#48707B"/>
<path d="M65.9426 72.049L34.5052 53.7303L3.06787 72.049V108.687L34.5052 127.005" stroke="#48707B"/>
<path d="M695.837 509.635L664.4 491.316L632.962 509.635V546.273L664.4 564.591" stroke="#48707B"/>
<path d="M1293.01 236.144L1261.57 217.825L1230.14 236.144V272.781L1261.57 291.1" stroke="#48707B"/>
<path d="M67.9875 364.117L36.5502 345.798L5.11279 364.117V400.755L36.5502 419.073" stroke="#48707B"/>
<path opacity="0.4" d="M442.767 36.1856L474.466 54.5044V91.1419L442.767 109.461L411.068 91.1419V54.5044" stroke="#9FB1BD"/>
<path d="M380.132 35.7536L379.88 35.6069L379.628 35.7536L348.191 54.0724L347.942 54.217V54.5044V91.1419V91.4292L348.191 91.5739L379.628 109.893L379.88 110.039L380.132 109.893L411.569 91.5739L411.817 91.4292V91.1419V54.5044V54.217L411.569 54.0724L380.132 35.7536Z" stroke="#48707B"/>
<path d="M505.642 35.9276L474.204 17.6088L442.767 35.9276V72.5651L474.204 90.8839" stroke="#48707B"/>
<path d="M379.867 35.9276L348.43 17.6088L316.993 35.9276V72.5651L348.43 90.8839" stroke="#48707B"/>
<path d="M473.943 17.3508L442.505 -0.967957L411.068 17.3508V53.9883L442.505 72.3071" stroke="#48707B"/>
<path d="M135.476 562.269L104.039 543.951L72.6016 562.269V598.907L104.039 617.226" stroke="#48707B"/>
<path opacity="0.4" d="M1324.21 400.497L1355.91 418.815V455.453L1324.21 473.772L1292.51 455.453V418.815" stroke="#9FB1BD"/>
<path d="M1323.95 363.943L1323.7 363.796L1323.45 363.943L1292.01 382.262L1291.76 382.407V382.694V419.331V419.619L1292.01 419.763L1323.45 438.082L1323.7 438.229L1323.95 438.082L1355.39 419.763L1355.64 419.619V419.331V382.694V382.407L1355.39 382.262L1323.95 363.943Z" stroke="#48707B"/>
<path d="M1323.95 290.668L1323.7 290.521L1323.45 290.668L1292.01 308.987L1291.76 309.132V309.419V346.056V346.344L1292.01 346.488L1323.45 364.807L1323.7 364.954L1323.95 364.807L1355.39 346.488L1355.64 346.344V346.056V309.419V309.132L1355.39 308.987L1323.95 290.668Z" stroke="#48707B"/>
<path d="M1323.69 364.117L1292.25 345.798L1260.81 364.117V400.755L1292.25 419.073" stroke="#48707B"/>
<path d="M1291.99 418.815L1260.55 400.497L1229.11 418.815V455.453L1260.55 473.772" stroke="#48707B"/>
<path d="M1323.69 290.842L1292.25 272.523L1260.81 290.842V327.48L1292.25 345.798" stroke="#48707B"/>
<path d="M1199.96 473.514L1168.52 455.195L1137.08 473.514V510.151L1168.52 528.47" stroke="#48707B"/>
<path d="M1199.96 400.239L1168.52 381.92L1137.08 400.239V436.876L1168.52 455.195" stroke="#48707B"/>
<path opacity="0.4" d="M1167.76 419.073L1199.46 437.392V474.03L1167.76 492.349L1136.06 474.03V437.392" stroke="#9FB1BD"/>
<path opacity="0.4" d="M1293.53 345.798L1325.23 364.117V400.755L1293.53 419.073L1261.83 400.755V364.117" stroke="#9FB1BD"/>
<path d="M1293.27 309.245L1293.02 309.098L1292.77 309.245L1261.33 327.564L1261.09 327.708V327.996V364.633V364.921L1261.33 365.065L1292.77 383.384L1293.02 383.531L1293.27 383.384L1324.71 365.065L1324.96 364.921V364.633V327.996V327.708L1324.71 327.564L1293.27 309.245Z" stroke="#48707B"/>
<path d="M1356.41 345.54L1324.97 327.222L1293.53 345.54V382.178L1324.97 400.497" stroke="#48707B"/>
<path d="M1293.01 309.419L1261.57 291.1L1230.14 309.419V346.056L1261.57 364.375" stroke="#48707B"/>
<path d="M1261.31 364.117L1229.87 345.798L1198.44 364.117V400.755L1229.87 419.073" stroke="#48707B"/>
<path d="M1230.63 418.815L1199.2 400.497L1167.76 418.815V455.453L1199.2 473.772" stroke="#48707B"/>
<path d="M1355.39 528.212L1323.95 509.893L1292.51 528.212V564.849L1323.95 583.168" stroke="#48707B"/>
</svg>
