<svg width="64" height="64" viewBox="0 0 64 64" fill="none" xmlns="http://www.w3.org/2000/svg">
<path d="M32 0L59.7128 16V48L32 64L4.28719 48V16L32 0Z" fill="#47982D"/>
<path d="M32.3584 45.56C25.5051 45.56 22.0784 41.1067 22.0784 32.2C22.0784 22.3867 25.9184 17.48 33.5984 17.48C36.3184 17.48 38.7051 18.0133 40.7584 19.08L39.3184 22.8C37.5051 22.0267 35.7718 21.64 34.1184 21.64C31.6918 21.64 29.9318 22.4133 28.8384 23.96C27.7451 25.5067 27.1718 28.0267 27.1184 31.52C28.4784 29.6267 30.6118 28.68 33.5184 28.68C36.0518 28.68 38.0518 29.4133 39.5184 30.88C41.0118 32.32 41.7584 34.28 41.7584 36.76C41.7584 39.48 40.9184 41.6267 39.2384 43.2C37.5851 44.7733 35.2918 45.56 32.3584 45.56ZM32.2384 32.44C30.1851 32.44 28.4918 33.1467 27.1584 34.56C27.2384 36.9867 27.6918 38.7867 28.5184 39.96C29.3718 41.1067 30.6251 41.68 32.2784 41.68C33.7184 41.68 34.8251 41.28 35.5984 40.48C36.3984 39.6533 36.7984 38.48 36.7984 36.96C36.7984 33.9467 35.2784 32.44 32.2384 32.44Z" fill="#E5E5E5"/>
</svg>
