<svg width="64" height="64" viewBox="0 0 64 64" fill="none" xmlns="http://www.w3.org/2000/svg">
<path d="M32 0L59.7128 16V48L32 64L4.28719 48V16L32 0Z" fill="#F142AB"/>
<path d="M22.7584 45V41.24L31.3584 33.28C32.8518 31.8933 33.9051 30.6667 34.5184 29.6C35.1318 28.5067 35.4384 27.3867 35.4384 26.24C35.4384 24.7733 34.9984 23.6533 34.1184 22.88C33.2384 22.1067 31.9718 21.72 30.3184 21.72C28.4784 21.72 26.4518 22.2133 24.2384 23.2L22.7184 19.6C25.3051 18.1867 27.9851 17.48 30.7584 17.48C33.8518 17.48 36.2384 18.2133 37.9184 19.68C39.6251 21.1467 40.4784 23.2267 40.4784 25.92C40.4784 27.7333 40.0384 29.44 39.1584 31.04C38.2784 32.6133 36.8118 34.32 34.7584 36.16L29.4384 40.88H41.1984V45H22.7584Z" fill="#E5E5E5"/>
</svg>
