<svg width="64" height="64" viewBox="0 0 64 64" fill="none" xmlns="http://www.w3.org/2000/svg">
<path d="M32 0L59.7128 16V48L32 64L4.28719 48V16L32 0Z" fill="#47982D"/>
<path d="M31.2384 45.56C27.9318 45.56 25.0518 44.8267 22.5984 43.36L24.0384 39.64C26.2784 40.8133 28.5451 41.4 30.8384 41.4C32.7584 41.4 34.1718 41.04 35.0784 40.32C35.9851 39.6 36.4384 38.4933 36.4384 37C36.4384 35.5067 35.9984 34.3733 35.1184 33.6C34.2384 32.8 32.9851 32.4 31.3584 32.4C29.4918 32.4 27.8384 32.92 26.3984 33.96L23.2384 32.24V18.04H39.8784V22.24H27.5184V30.44C28.7451 29.1333 30.6118 28.48 33.1184 28.48C35.7051 28.48 37.7318 29.24 39.1984 30.76C40.6651 32.2533 41.3984 34.3333 41.3984 37C41.3984 39.8 40.5318 41.9333 38.7984 43.4C37.0918 44.84 34.5718 45.56 31.2384 45.56Z" fill="#E5E5E5"/>
</svg>
