<svg width="64" height="64" viewBox="0 0 64 64" fill="none" xmlns="http://www.w3.org/2000/svg">
<path d="M32 0L59.7128 16V48L32 64L4.28719 48V16L32 0Z" fill="#F142AB"/>
<path d="M22.6384 19.56C23.8384 18.9467 25.1051 18.4533 26.4384 18.08C27.7718 17.68 29.2518 17.48 30.8784 17.48C33.9184 17.48 36.2518 18.16 37.8784 19.52C39.5318 20.8533 40.3584 22.6667 40.3584 24.96C40.3584 26.64 39.9051 27.9867 38.9984 29C38.1184 30.0133 36.9318 30.6933 35.4384 31.04C37.3051 31.3867 38.6918 32.1733 39.5984 33.4C40.5318 34.6267 40.9984 36.1067 40.9984 37.84C40.9984 40.2933 40.1184 42.2 38.3584 43.56C36.6251 44.8933 34.1451 45.56 30.9184 45.56C29.1851 45.56 27.5851 45.36 26.1184 44.96C24.6784 44.5333 23.3584 43.9867 22.1584 43.32L23.5984 39.64C25.8118 40.8133 28.1584 41.4 30.6384 41.4C32.3718 41.4 33.7051 41.0533 34.6384 40.36C35.5718 39.6667 36.0384 38.56 36.0384 37.04C36.0384 35.9467 35.7051 35.04 35.0384 34.32C34.3718 33.6 33.0651 33.24 31.1184 33.24H27.6784V29.16H30.8784C32.6118 29.16 33.7984 28.84 34.4384 28.2C35.0784 27.56 35.3984 26.68 35.3984 25.56C35.3984 24.12 34.9451 23.12 34.0384 22.56C33.1584 21.9733 31.9584 21.68 30.4384 21.68C29.3184 21.68 28.2118 21.8133 27.1184 22.08C26.0251 22.3467 25.0118 22.6933 24.0784 23.12L22.6384 19.56Z" fill="#E5E5E5"/>
</svg>
